# xmcd CD database file
# Copyright (C) 1993-1998 Ti Kan
#
# Track frame offsets:
#  182
#  3800
#  12015
#  19367
#  29122
#  34360
#  47792
#  51712
#  64650
#  74210
#  90672
#  99012
#  109845
#  116862
#  118207
#  127450
#  132667
#  136682
#  140145
#  147912
#  158445
#  161260
#  163355
#  177302
#  190950
#  197360
#  211250
#  218627
#  229102
#  236442
#  247492
#
# Disc length: 3363 seconds
#
# Revision: 1
# Processed by: cddbd v1.4b41PL1 Copyright (c) Steve Scherf et al.
# Submitted via: CDWizzard Release:4.35
#
DISCID=db0d211f
DTITLE=Various Artist - North Atlantic Noise Attack
DYEAR=1900
DGENRE=
TTITLE0=boiling poing
TTITLE1=subliminal decay
TTITLE2=poetic justice
TTITLE3=nervous breakdown
TTITLE4=conform - ID
TTITLE5=under one fist
TTITLE6=s.h.c.
TTITLE7=forced
TTITLE8=deep down under
TTITLE9=alone on a hill
TTITLE10=zombies in disneyland
TTITLE11=plaything
TTITLE12=blitzkrieg bop
TTITLE13=bench
TTITLE14=bullshit propaganda
TTITLE15=carry on screaming
TTITLE16=face up to it
TTITLE17=stand proud
TTITLE18=too soon to judge
TTITLE19=scum
TTITLE20=life
TTITLE21=retreat to nowhere
TTITLE22=eminent scum
TTITLE23=evolution garden
TTITLE24=forest of the megalomaniac
TTITLE25=head in the smoke
TTITLE26=final conflict
TTITLE27=look beyond
TTITLE28=giving hell
TTITLE29=changes
TTITLE30=sit back and laugh
EXTD=
EXTT0=
EXTT1=
EXTT2=
EXTT3=
EXTT4=
EXTT5=
EXTT6=
EXTT7=
EXTT8=
EXTT9=
EXTT10=
EXTT11=
EXTT12=
EXTT13=
EXTT14=
EXTT15=
EXTT16=
EXTT17=
EXTT18=
EXTT19=
EXTT20=
EXTT21=
EXTT22=
EXTT23=
EXTT24=
EXTT25=
EXTT26=
EXTT27=
EXTT28=
EXTT29=
EXTT30=
PLAYORDER=
